<?xml version="1.0" encoding="utf-8"?>
<!-- Generator: Adobe Illustrator 15.0.0, SVG Export Plug-In . SVG Version: 6.00 Build 0)  -->
<!DOCTYPE svg PUBLIC "-//W3C//DTD SVG 1.1//EN" "http://www.w3.org/Graphics/SVG/1.1/DTD/svg11.dtd">
<svg version="1.1" id="Layer_2" xmlns="http://www.w3.org/2000/svg" xmlns:xlink="http://www.w3.org/1999/xlink" x="0px" y="0px"
	 width="60px" height="60px" viewBox="0 0 60 60" enable-background="new 0 0 60 60" xml:space="preserve">
<g>
	<g>
		<path fill="#7F1949" d="M5.828,6.979c3.931-1.32,7.567-2.898,11.506-4.12c1.956-0.617,3.963-1.102,6.023-1.539
			c2.062-0.43,4.171-0.888,6.46-1.19c0.574-0.077,1.157-0.142,1.756-0.177c0.306-0.013,0.587-0.07,0.934-0.083
			c0.239-0.001,0.496,0,0.828,0.022c1.189,0.028,2.366,0.104,3.64,0.187c2.498,0.229,5.33,0.72,8.044,2.269
			c1.345,0.769,2.617,1.807,3.71,3.061c1.071,1.27,1.978,2.738,2.57,4.37c0.295,0.818,0.509,1.674,0.637,2.592
			c0.058,0.456,0.097,0.95,0.107,1.449c-0.038,0.214-0.054,0.609-0.11,0.928c-0.192,1.37-0.656,3.21-1.479,4.854
			c-0.819,1.65-1.85,3.057-2.941,4.089c-1.093,1.055-2.357,1.664-3.328,2.379l-0.223,0.15l-0.204,0.054
			c-0.139,0.039-0.257,0.062-0.434,0.13c-0.331,0.123-0.645,0.217-0.953,0.302c-0.619,0.185-1.237,0.356-1.864,0.494
			c-1.226,0.31-2.469,0.553-3.695,0.57c-1.23,0.032-2.377-0.208-3.435-0.422c-0.528-0.13-1.055-0.211-1.558-0.372l-0.404-0.118
			c-0.163-0.059-0.326-0.123-0.464-0.192c-0.293-0.129-0.59-0.288-0.863-0.503c-0.561-0.408-1.07-1-1.353-1.786
			c-0.261-0.767-0.358-1.822,0.421-2.85c0.375-0.501,1.001-0.909,1.63-1.062c0.633-0.151,1.211-0.098,1.687,0.003l0.177,0.042
			l0.088,0.022c-0.004-0.004,0.211,0.084,0.13,0.049l0.022,0.006l0.181,0.048c0.286,0.11,0.556,0.276,0.729,0.392
			c0.389,0.261,0.723,0.564,0.99,0.866c1.036,1.247,1.375,2.385,1.748,3.428c0.339,1.048,0.6,2.036,0.808,3.006
			c0.449,1.928,0.714,3.808,1.23,5.43c0.242,0.823,0.54,1.587,0.896,2.247c0.352,0.664,0.775,1.198,1.351,1.573
			c0.285,0.191,0.625,0.334,0.985,0.448c0.333,0.13,0.691,0.221,1.068,0.231c0.744,0.031,1.642-0.221,2.45-0.764l0.079-0.053
			c0.091-0.062,0.214-0.037,0.275,0.054c0.046,0.069,0.043,0.157,0,0.222c-0.592,0.874-1.466,1.517-2.488,1.798
			c-1.027,0.281-2.113,0.14-3.076-0.251c-0.975-0.395-1.793-1.105-2.414-1.918c-0.623-0.818-1.087-1.729-1.464-2.66
			c-0.763-1.87-1.143-3.827-1.573-5.745c-0.212-0.96-0.423-1.918-0.692-2.85c-0.274-0.923-0.599-1.851-1.159-2.57
			c-0.296-0.36-0.601-0.628-1.045-0.773c-0.407-0.14-0.847-0.117-1.134,0.176c-0.602,0.608-0.409,1.791,0.257,2.425
			c0.655,0.695,1.693,0.879,2.637,1.024c0.96,0.13,1.939,0.072,2.858-0.2c1.844-0.579,3.343-1.887,4.648-3.286
			c1.325-1.379,2.396-3.014,2.702-4.79c0.162-0.886,0.133-1.792,0.034-2.73l-0.087-0.715c-0.025-0.218-0.057-0.436-0.101-0.655
			c-0.087-0.438-0.211-0.874-0.367-1.299c-0.602-1.714-1.688-3.251-3.079-4.481c-1.387-1.243-3.083-2.168-4.886-2.823
			c-0.9-0.337-1.842-0.569-2.786-0.769c-0.959-0.194-1.896-0.366-2.871-0.431c-3.877-0.291-7.843,0.2-11.617,1.262
			c-0.944,0.27-1.881,0.562-2.811,0.873c-0.916,0.359-1.839,0.69-2.711,1.163c-1.74,0.9-3.471,2-4.805,3.553
			c-0.858,1-2.363,1.114-3.363,0.256S3.176,8.936,4.033,7.936C4.322,7.6,4.684,7.364,5.074,7.231L5.828,6.979z"/>
	</g>
	<g>
		<path fill="#7F1949" d="M26.479,11.553c0.282,3.027,0.016,5.913-0.376,8.791l-0.351,2.145l-0.46,2.122
			c-0.3,1.419-0.699,2.816-1.126,4.211c-0.864,2.799-2.002,5.503-3.486,8.276c-0.737,1.376-1.681,2.946-2.691,4.233
			c-1.023,1.309-2.152,2.5-3.426,3.529c-1.278,1.026-2.734,1.833-4.274,2.483c-0.774,0.321-1.587,0.582-2.443,0.764
			c-0.849,0.196-1.756,0.305-2.724,0.237c-0.949-0.065-2.037-0.439-2.774-1.099c-0.391-0.363-0.716-0.772-0.952-1.297
			c-0.231-0.518-0.315-1.123-0.243-1.668c0.167-1.11,0.77-1.873,1.401-2.569c0.661-0.696,1.492-1.287,2.728-1.696
			c0.619-0.232,1.373-0.482,2.321-0.646c0.916-0.122,2.006-0.128,3.013,0.101c0.521,0.104,0.961,0.285,1.432,0.471
			c0.211,0.072,0.474,0.239,0.59,0.294c0.12,0.03,0.229,0.067,0.331,0.108c0.216,0.071,0.448,0.233,0.643,0.36
			c0.201,0.112,0.351,0.266,0.521,0.389l3.039,2.807c0.825,0.729,1.394,1.283,1.925,1.86c0.542,0.559,1.055,1.173,1.747,1.784
			l0.257,0.237l0.064,0.061l0.016,0.016c-0.26-0.156-0.057-0.031-0.108-0.062l0.053,0.042l0.212,0.166l0.206,0.162l0.061,0.066
			c0.047,0.048,0.058,0.087,0.165,0.163c0.339,0.265,0.728,0.578,1.149,0.887c0.854,0.595,1.833,1.253,2.883,1.886
			c2.103,1.283,4.494,2.538,7.021,3.417c1.264,0.424,2.559,0.771,3.873,1.067c0.66,0.153,1.318,0.259,1.989,0.379
			c0.682,0.118,1.318,0.235,2.042,0.167c2.666-0.113,5.424-0.578,7.942-1.698c2.515-1.117,4.829-2.846,6.547-5.078
			c1.763-2.16,2.935-4.833,2.822-7.522c-0.071-1.326-0.478-2.624-1.303-3.639c-0.402-0.511-0.897-0.953-1.456-1.312
			c-0.278-0.172-0.579-0.35-0.866-0.485c-0.341-0.142-0.642-0.255-0.964-0.343c-2.618-0.758-5.555,0.064-7.798,1.657l-0.019,0.013
			c-0.103,0.073-0.244,0.049-0.317-0.054c-0.071-0.099-0.05-0.236,0.045-0.311c1.163-0.91,2.478-1.563,3.896-1.953
			c1.412-0.392,2.943-0.426,4.378-0.05c1.409,0.357,2.816,1.111,3.774,2.282c0.959,1.178,1.424,2.686,1.462,4.159
			c0.061,2.983-1.335,5.767-3.209,7.915c-1.845,2.197-3.994,4.146-6.456,5.64c-2.468,1.478-5.182,2.534-7.997,3.192
			c-2.8,0.697-5.721,1.015-8.617,0.942c-2.897-0.065-5.802-0.359-8.647-1.03c-2.828-0.684-5.676-1.628-8.225-3.286
			c-2.483-1.64-4.718-3.858-6.17-6.436c-0.76-1.263-1.409-2.548-2.084-3.781c-0.324-0.615-0.631-1.291-0.864-1.812
			c-0.28-0.525-0.768-1.019-1.436-1.119c-1.298-0.195-2.836,0.838-2.911,2.243c-0.03,0.69,0.404,1.308,0.964,1.687
			c0.559,0.406,1.244,0.591,1.931,0.584c1.385-0.017,2.711-0.614,3.894-1.341c1.188-0.742,2.266-1.661,3.238-2.672
			c4.09-4.014,5.458-9.738,6.813-15.219c1.238-5.548,2.134-11.209,2.402-16.942c0.062-1.346,1.205-2.386,2.55-2.323
			c1.23,0.057,2.206,1.017,2.315,2.21L26.479,11.553z"/>
	</g>
</g>
</svg>
